# xmcd
#
# Track frame offsets:
#	150
#	17607
#	42957
#	60357
#
# Disc length: 1141 seconds
#
# Revision: 1
# Processed by: cddbd v1.5PL3 Copyright (c) Steve Scherf et al.
# Submitted via: CDex 1.50Beta5
#
DISCID=25047304
DTITLE=日之内絵美 - Freak !
DYEAR=2003
DGENRE=R&B
TTITLE0=Freak!
TTITLE1=brand new love
TTITLE2=Freak! (Instrumental)
TTITLE3=brand new love(Instrumental)
EXTD=
EXTT0=
EXTT1=
EXTT2=
EXTT3=
PLAYORDER=
